# xmcd
#
# Track frame offsets:
#	150
#	15168
#	28837
#	47844
#	61816
#	77132
#	91783
#	108640
#	128310
#	148371
#	165048
#	182146
#
# Disc length: 2612 seconds
#
# Revision: 1
# Processed by: cddbd v1.5.2PL0 Copyright (c) Steve Scherf et al.
# Submitted via: audiograbber 1.83.01
#
DISCID=8d0a320c
DTITLE=David Broadley - Baby Blue David Broadley
DYEAR=2006
DGENRE=
TTITLE0=Then You Can Tell Me Goodbye
TTITLE1=Let Your Love Flow
TTITLE2=Baby Blue
TTITLE3=Honky Tonk Baby
TTITLE4=Driving My Life Away
TTITLE5=Moody Blue
TTITLE6=Your Love Blows Me Away
TTITLE7=Danny Boy
TTITLE8=Dance The Night Away
TTITLE9=Halfway To Paradise
TTITLE10=My Special Angel
TTITLE11=Sweet Gypsy Rose
EXTD=
EXTT0=
EXTT1=
EXTT2=
EXTT3=
EXTT4=
EXTT5=
EXTT6=
EXTT7=
EXTT8=
EXTT9=
EXTT10=
EXTT11=
PLAYORDER=
